<svg width="20" height="16" viewBox="0 0 20 16" fill="none" xmlns="http://www.w3.org/2000/svg">
<path fill-rule="evenodd" clip-rule="evenodd" d="M20 1.11111C20 1.4058 19.8829 1.68841 19.6746 1.89679C19.4662 2.10516 19.1836 2.22222 18.8889 2.22222H1.11111C0.816426 2.22222 0.533811 2.10516 0.325437 1.89679C0.117063 1.68841 0 1.4058 0 1.11111C0 0.816426 0.117063 0.533811 0.325437 0.325437C0.533811 0.117063 0.816426 0 1.11111 0H18.8889C19.1836 0 19.4662 0.117063 19.6746 0.325437C19.8829 0.533811 20 0.816426 20 1.11111ZM20 7.77778C20 8.07246 19.8829 8.35508 19.6746 8.56345C19.4662 8.77182 19.1836 8.88889 18.8889 8.88889H1.11111C0.816426 8.88889 0.533811 8.77182 0.325437 8.56345C0.117063 8.35508 0 8.07246 0 7.77778C0 7.48309 0.117063 7.20048 0.325437 6.9921C0.533811 6.78373 0.816426 6.66667 1.11111 6.66667H18.8889C19.1836 6.66667 19.4662 6.78373 19.6746 6.9921C19.8829 7.20048 20 7.48309 20 7.77778ZM18.8889 15.5556C19.1836 15.5556 19.4662 15.4385 19.6746 15.2301C19.8829 15.0217 20 14.7391 20 14.4444C20 14.1498 19.8829 13.8671 19.6746 13.6588C19.4662 13.4504 19.1836 13.3333 18.8889 13.3333H1.11111C0.816426 13.3333 0.533811 13.4504 0.325437 13.6588C0.117063 13.8671 0 14.1498 0 14.4444C0 14.7391 0.117063 15.0217 0.325437 15.2301C0.533811 15.4385 0.816426 15.5556 1.11111 15.5556H18.8889Z" fill="#E4E8ED"/>
</svg>
