<svg width="11" height="11" viewBox="0 0 11 11" fill="none" xmlns="http://www.w3.org/2000/svg">
<path d="M1.83341 3.66511C1.75824 3.66317 1.70366 3.65882 1.65458 3.64905C1.29095 3.57672 1.00669 3.29247 0.934362 2.92883C0.916748 2.84028 0.916748 2.7338 0.916748 2.52083C0.916748 2.30786 0.916748 2.20138 0.934362 2.11283C1.00669 1.7492 1.29095 1.46494 1.65458 1.39261C1.74313 1.375 1.84961 1.375 2.06258 1.375H8.93758C9.15057 1.375 9.25704 1.375 9.34559 1.39261C9.70923 1.46494 9.99349 1.7492 10.0658 2.11283C10.0834 2.20138 10.0834 2.30786 10.0834 2.52083C10.0834 2.7338 10.0834 2.84028 10.0658 2.92883C9.99349 3.29247 9.70923 3.57672 9.34559 3.64905C9.2965 3.65882 9.24191 3.66317 9.16675 3.66511M4.58341 5.95833H6.41675M1.83341 3.66667H9.16675V7.425C9.16675 8.19509 9.16675 8.58009 9.01687 8.87425C8.88506 9.13298 8.67473 9.34331 8.416 9.47513C8.12184 9.625 7.73684 9.625 6.96675 9.625H4.03341C3.26334 9.625 2.8783 9.625 2.58418 9.47513C2.32545 9.34331 2.11511 9.13298 1.98328 8.87425C1.83341 8.58009 1.83341 8.19509 1.83341 7.425V3.66667Z" stroke="#D7DDE5" stroke-width="0.7" stroke-linecap="round" stroke-linejoin="round"/>
</svg>
