<svg width="20" height="20" viewBox="0 0 20 20" fill="none" xmlns="http://www.w3.org/2000/svg">
<path d="M3.36598 3.36598C3.60039 3.13164 3.91828 3 4.24973 3C4.58119 3 4.89907 3.13164 5.13348 3.36598L9.55348 7.78598L13.9735 3.36598C14.2092 3.13829 14.525 3.01229 14.8527 3.01514C15.1805 3.01799 15.494 3.14945 15.7258 3.38121C15.9575 3.61297 16.089 3.92649 16.0918 4.25423C16.0947 4.58198 15.9687 4.89773 15.741 5.13348L11.321 9.55348L15.741 13.9735C15.9687 14.2092 16.0947 14.525 16.0918 14.8527C16.089 15.1805 15.9575 15.494 15.7258 15.7258C15.494 15.9575 15.1805 16.089 14.8527 16.0918C14.525 16.0947 14.2092 15.9687 13.9735 15.741L9.55348 11.321L5.13348 15.741C4.89773 15.9687 4.58198 16.0947 4.25423 16.0918C3.92649 16.089 3.61297 15.9575 3.38121 15.7258C3.14945 15.494 3.01799 15.1805 3.01514 14.8527C3.01229 14.525 3.13829 14.2092 3.36598 13.9735L7.78598 9.55348L3.36598 5.13348C3.13164 4.89907 3 4.58119 3 4.24973C3 3.91828 3.13164 3.60039 3.36598 3.36598Z" fill="#E4E8ED"/>
</svg>
