<svg width="16" height="16" viewBox="0 0 16 16" fill="none" xmlns="http://www.w3.org/2000/svg">
<path d="M7.14417 6.73339C7.14417 6.26039 7.52761 5.87695 8.0006 5.87695C8.4736 5.87695 8.85704 6.26039 8.85704 6.73339V9.30269C8.85704 9.77569 8.4736 10.1591 8.0006 10.1591C7.52761 10.1591 7.14417 9.77569 7.14417 9.30269V6.73339ZM7.14331 11.872C7.14331 11.399 7.52675 11.0156 7.99975 11.0156C8.47274 11.0156 8.85618 11.399 8.85618 11.872C8.85618 12.345 8.47274 12.7284 7.99975 12.7284C7.52675 12.7284 7.14331 12.345 7.14331 11.872Z" fill="white"/>
<path d="M9.51394 0.909534C9.2159 0.348569 8.63524 0 7.99976 0C7.36429 0 6.78363 0.348569 6.48559 0.910391L0.201065 12.7832C0.0616096 13.0439 -0.00746999 13.3365 0.000640063 13.632C0.00875011 13.9276 0.0937695 14.2159 0.247312 14.4686C0.398643 14.7224 0.613558 14.9324 0.870839 15.0778C1.12812 15.2232 1.41887 15.299 1.71439 15.2976H14.2851C14.8915 15.2976 15.4405 14.9876 15.7531 14.4686C15.9064 14.2158 15.9912 13.9275 15.9994 13.632C16.0075 13.3365 15.9385 13.044 15.7993 12.7832L9.51394 0.909534ZM1.71439 13.5848L7.99976 1.71201L14.2894 13.5848H1.71439Z" fill="white"/>
</svg>
