<svg width="16" height="17" viewBox="0 0 16 17" fill="none" xmlns="http://www.w3.org/2000/svg">
<path d="M5.54841 8.97119H4.00002C3.57422 8.97119 3.22583 9.31958 3.22583 9.74538V12.8422C3.22583 13.268 3.57422 13.6164 4.00002 13.6164H5.54841C5.97422 13.6164 6.3226 13.268 6.3226 12.8422V9.74538C6.3226 9.31958 5.97422 8.97119 5.54841 8.97119Z" fill="white"/>
<path d="M8.25808 6.77783C7.83227 6.77783 7.48389 7.12622 7.48389 7.55203V12.8423C7.48389 13.2682 7.83227 13.6165 8.25808 13.6165H9.80647C10.2323 13.6165 10.5807 13.2682 10.5807 12.8423V7.55203C10.5807 7.12622 10.2323 6.77783 9.80647 6.77783H8.25808Z" fill="white"/>
<path d="M14.0645 6.77783H12.5161C12.0903 6.77783 11.7419 7.12622 11.7419 7.55203V12.8423C11.7419 13.2682 12.0903 13.6165 12.5161 13.6165H14.0645C14.4903 13.6165 14.8387 13.2682 14.8387 12.8423V7.55203C14.8387 7.12622 14.4903 6.77783 14.0645 6.77783Z" fill="white"/>
<path d="M0.83871 16.8423H15.2774C15.7032 16.8423 15.9871 16.4294 15.9871 16.0036V15.7455C15.9871 15.3197 15.7032 14.9197 15.2774 14.9197H2.67097C2.24516 14.9197 1.93548 14.6229 1.93548 14.1843V1.55196C1.93548 1.12616 1.53548 0.842285 1.10968 0.842285H0.851613C0.412903 0.842285 0 1.12616 0 1.55196V15.9907C0 16.4294 0.412903 16.8423 0.83871 16.8423Z" fill="white"/>
</svg>
