<svg width="972" height="755" viewBox="0 0 972 755" fill="none" xmlns="http://www.w3.org/2000/svg">
<path d="M1.19356 208.85C-7.93457 120.269 62.6639 43.743 151.693 45.7157L440.657 52.1186C482.097 53.0368 523.515 49.4636 564.185 41.4615L753.604 4.19259C874.199 -19.5351 983.434 79.9989 970.992 202.275L949.5 413.5L958.501 664.623C961.014 734.739 883.265 778.403 824.701 739.764L811.138 730.816C739.963 683.856 651.269 671.887 570.192 698.301V698.301C465.299 732.473 354.998 746.989 244.835 741.117L124.163 734.686C84.3408 732.564 51.9881 701.772 47.9004 662.104L1.19356 208.85Z" fill="#161B21"/>
</svg>
