<svg width="12" height="12" viewBox="0 0 12 12" fill="none" xmlns="http://www.w3.org/2000/svg">
<path fill-rule="evenodd" clip-rule="evenodd" d="M0.18867 3.69508C-0.0679878 3.46515 -0.0620413 3.09754 0.20195 2.874L3.40195 0.164336C3.59406 0.00167123 3.87931 -0.045028 4.12612 0.0457923C4.37289 0.136613 4.53334 0.347293 4.53334 0.580657V11.4193C4.53334 11.74 4.23485 12 3.86667 12C3.49848 12 3.2 11.74 3.2 11.4193V1.955L1.13139 3.70664C0.867398 3.93018 0.445328 3.925 0.18867 3.69508ZM11.8113 8.30491C12.068 8.53484 12.062 8.90243 11.798 9.12594L8.59805 11.8356C8.40596 11.9983 8.12071 12.045 7.87387 11.9542C7.62711 11.8634 7.46667 11.6527 7.46667 11.4193V0.580657C7.46667 0.25998 7.76516 1.4278e-05 8.13333 1.4278e-05C8.50151 1.4278e-05 8.8 0.25998 8.8 0.580657V10.045L10.8686 8.29337C11.1326 8.06979 11.5547 8.07497 11.8113 8.30491Z" fill="#BAC4D1"/>
</svg>
