<svg width="16" height="17" viewBox="0 0 16 17" fill="none" xmlns="http://www.w3.org/2000/svg">
<path d="M5.54841 8.49805H4.00002C3.57422 8.49805 3.22583 8.84643 3.22583 9.27224V12.369C3.22583 12.7948 3.57422 13.1432 4.00002 13.1432H5.54841C5.97422 13.1432 6.3226 12.7948 6.3226 12.369V9.27224C6.3226 8.84643 5.97422 8.49805 5.54841 8.49805Z" fill="#67985F"/>
<path d="M8.25808 6.30469C7.83227 6.30469 7.48389 6.65307 7.48389 7.07888V12.3692C7.48389 12.795 7.83227 13.1434 8.25808 13.1434H9.80647C10.2323 13.1434 10.5807 12.795 10.5807 12.3692V7.07888C10.5807 6.65307 10.2323 6.30469 9.80647 6.30469H8.25808Z" fill="#67985F"/>
<path d="M14.0645 6.30469H12.5161C12.0903 6.30469 11.7419 6.65307 11.7419 7.07888V12.3692C11.7419 12.795 12.0903 13.1434 12.5161 13.1434H14.0645C14.4903 13.1434 14.8387 12.795 14.8387 12.3692V7.07888C14.8387 6.65307 14.4903 6.30469 14.0645 6.30469Z" fill="#67985F"/>
<path d="M0.83871 16.3691H15.2774C15.7032 16.3691 15.9871 15.9562 15.9871 15.5304V15.2724C15.9871 14.8466 15.7032 14.4466 15.2774 14.4466H2.67097C2.24516 14.4466 1.93548 14.1498 1.93548 13.7112V1.07882C1.93548 0.653012 1.53548 0.369141 1.10968 0.369141H0.851613C0.412903 0.369141 0 0.653012 0 1.07882V15.5175C0 15.9562 0.412903 16.3691 0.83871 16.3691Z" fill="#67985F"/>
</svg>
